<?xml version="1.0" encoding="utf-8"?>
<!-- Generator: Adobe Illustrator 21.0.0, SVG Export Plug-In . SVG Version: 6.00 Build 0)  -->
<svg version="1.1" id="Layer_1" xmlns="http://www.w3.org/2000/svg" xmlns:xlink="http://www.w3.org/1999/xlink" x="0px" y="0px"
	 viewBox="0 0 133.5 115" style="enable-background:new 0 0 133.5 115;" xml:space="preserve">
<style type="text/css">
	.st0{fill:#713D7D;}
	.st1{fill:#723B7E;}
	.st2{fill:#723E7A;}
	.st3{fill:#754180;}
	.st4{fill:#7F548A;}
	.st5{fill:#713C7B;}
	.st6{fill:#626F41;}
	.st7{enable-background:new    ;}
</style>
<g>
	<path class="st0" d="M64.4,8.8c-0.3,1.8-0.4,3.6-0.6,5.4c0.1,2.1,0.3,4.2,0.9,6.2l0.1,0.2c1,3.6,2.8,7.1,5.2,10
		c0.5,0.6,1,1.3,1.4,2c-0.1-2.8,0.5-5.5,1.6-8.1h0h0.3c-0.9,2.9-1.5,6-1.1,9.1c0.5,1.1,1.3,2.1,1.8,3.3c0.6,1.6,1.2,3.3,1.5,5
		c1.1-0.7,2.2-1.3,3.1-2.3c0.9-0.9,1.9-2,3.2-2c1.4-0.2,2.8,0.7,3.4,1.9c0.4,0.9,1.2,1.4,1.9,2c-0.2,0.3-0.1,0-0.3,0.3l-0.2,0.1
		c-1,0-2-0.1-2.9,0.3c-1.1,1.2-2.1,2.7-2.7,4.2c-0.7,1.7-1.4,3.5-2.7,4.9c-1.9,2.2-4.6,3.4-7.4,4c-3.6,0.7-7.6,0.6-11-1.2
		c0.1-0.2,0.1-0.4,0.1-0.6l0.1,0.5c0.3,0.1,0.6,0.2,0.9,0.3c1.2,0.6,2.6,0.8,4,0.7c0.1-0.2,0.2-0.5,0.3-0.7c-0.8,0-1.5-0.1-2.3-0.1
		c1.1-0.1,2.3-0.7,3.4-0.3c0.2,0.6-0.3,0.9-0.7,1.2c3.1,0.2,6.3-0.6,9-2.1c1.4-0.8,2.6-1.8,3.4-3.1c1.2-1.8,2-3.8,3.3-5.5
		c0.7-0.9,1.5-1.6,2.3-2.3c0.7-0.2,1.4-0.4,2.1-0.6c-0.6-0.9-1.2-1.8-2-2.5c-0.7-0.6-1.7-0.6-2.5-0.5c-0.7,0.1-1.1,0.7-1.6,1.1
		c-1.1,1.2-2.6,1.9-4.1,2.5c0,0.7,0,1.4-0.1,2.1c-0.1,0-0.3,0.1-0.4,0.1c0.3-2.2-0.9-4.2-1.7-6.2c-1.2-2.6-2.8-4.9-4.5-7.1
		c-1.3-1.8-2.1-3.8-2.9-5.9c-0.9-2.4-1.8-4.8-2.2-7.4c-0.5-3.9-0.2-8,1.1-11.7c0-0.1,0.1-0.3,0.1-0.5l0,0c0.2-0.4,0.4-0.9,0.7-1.3"
		/>
	<path class="st0" d="M61,10.5c0.3-1.1,0.4-2.3,1.2-3.1c-0.5,1.9-1.1,3.7-1.1,5.7c-0.3,4.5,1.4,8.9,3.6,12.8c0,0.1-0.1,0.4-0.1,0.6
		c-0.7-1-1.2-2.2-1.8-3.3c-1.2-2.3-2.1-4.9-2.3-7.5C60.5,13.9,60.6,12.2,61,10.5L61,10.5z"/>
	<path class="st0" d="M57.2,14.5c0.3-1.7,1.1-3.2,2-4.6c-0.4,1.6-1.3,3-1.6,4.7c-0.4,2.1,0.1,4.3,0.8,6.4c0.8,2.6,2.6,4.7,4.4,6.7
		c0.6,0.7,1.3,1.2,1.4,2.2c-0.9-0.7-1.6-1.6-2.4-2.4c-1.5-1.6-2.9-3.3-3.7-5.3C57.3,19.6,56.7,17,57.2,14.5L57.2,14.5z"/>
	<path class="st0" d="M81.1,19c1.2-2.5,3-5,5.7-6.1c-1.2,1.2-2.6,2.2-3.6,3.6c-2.1,3-3.1,6.7-3.4,10.3c-0.3,2.6-0.1,5.2,0.2,7.7
		c0.1,0.6,0,1.3-0.1,1.9C78.8,30.7,78.6,24.5,81.1,19L81.1,19z"/>
	<path class="st0" d="M81.3,15.5c0.4-0.6,1.1-1,1.7-1.4c-0.7,1.1-1.7,2-2.5,3.1c-0.5,0.7-1,1.5-1.5,2.2
		C79.4,17.9,80.4,16.7,81.3,15.5L81.3,15.5z"/>
	<path class="st0" d="M77.4,17.6c0.9-0.7,1-0.9,1.9-1.5c-0.9,1.1-2,1.9-2.8,3.1c-0.9,1.2-1.5,2.6-2,4c-0.7,2-0.8,4.1-1.2,6.2
		c-0.1-1.7,0.2-4.2,0.7-5.8l-0.5,0.8l-0.5,0.3c1-2.1,2.2-4.7,3.8-6.5L77.4,17.6z"/>
	<path class="st1" d="M55.1,17.2c-0.1,2.1-0.8,4.1-0.4,6.2c-0.1,0.1-0.3,0.3-0.4,0.3C53.6,21.6,54.3,19.3,55.1,17.2L55.1,17.2z"/>
	<path class="st0" d="M77,27.4c-0.3-2.6,0.5-5.2,1.6-7.6c-0.4,1.4-0.9,2.8-1,4.3C77.4,25.2,77.5,26.4,77,27.4L77,27.4z"/>
	<path class="st1" d="M54.3,23.8c0.1-0.1,0.3-0.3,0.4-0.3c0.5,2.1,1.3,4.2,2.6,5.9c1.1,1.5,2.6,2.7,4.2,3.7c1.1,0.7,2,1.6,3.1,2.4
		c-3.4-1.1-6.6-3.2-8.4-6.2C55.2,27.5,54.8,25.6,54.3,23.8L54.3,23.8z"/>
	<path class="st2" d="M51.7,25.4c0.2,1.3-0.1,2.7,0.4,4c0.6,2.2,2.3,3.8,4.2,4.9c1.4,0.9,3,1.5,4.5,2.3c1.1,0.6,2.5,0.7,3.6,1.4
		c-2.5,0-4.7-1.2-6.8-2.3c-2.4-1.2-4.6-2.9-5.6-5.4C51.4,28.8,51.6,27.1,51.7,25.4L51.7,25.4z"/>
	<path class="st2" d="M52.3,34.8c2.1,2.2,5,3.5,8,4c1.6,0.3,3.1,0.1,4.7,0.3c-1.9,0.6-4.1,0.4-6.1-0.1
		C56.4,38.2,53.5,37.3,52.3,34.8L52.3,34.8z"/>
	<path class="st3" d="M72.4,37.8c1,1.4,1.7,3,2,4.7c0.3,1.7-0.8,3.5-2.4,4c1.1-0.8,2-2.1,2-3.5c-0.1-1.1-0.3-2.2-0.7-3.1
		C72.9,39.2,72.5,38.5,72.4,37.8L72.4,37.8z"/>
	<path class="st4" d="M82.2,39c0.5,0,1.1,0,1.6,0.1c0.4,0.8-0.5,1.2-1.2,1c0-0.2-0.1-0.5-0.1-0.7C82.4,39.3,82.3,39.1,82.2,39
		L82.2,39z"/>
	<path class="st2" d="M55.9,40.1c0-0.2,0-0.5,0-0.7c0.3,1.2,1.5,1.7,2.6,2.2c1.4,0.6,3,0.2,4.5,0.7C60.4,43.1,57.5,42.1,55.9,40.1
		L55.9,40.1z"/>
	<path class="st0" d="M56.5,42.3c0.8,1.5,2.6,2.1,4.2,2c1.5-0.1,2.9-0.2,4.3-0.6c0.1,0.1,0.2,0.2,0.4,0.4c-1.7,0.6-3.5,0.7-5.2,0.7
		c-1.4,0-2.7-0.9-3.7-1.9C56.6,42.7,56.5,42.4,56.5,42.3L56.5,42.3z"/>
	<path class="st5" d="M44.1,44.7c0.2,0,0.4,0,0.6,0c0.9,0.8,1.9,1.6,3,2.2c2.5,1.3,5.2,2.4,8.1,2.9c1.4,0.3,2.9,0.7,4.3,0.3
		c1.1-0.3,2-0.9,2.9-1.5c-0.2-0.1-0.7-0.3-1-0.5c1.9,0.9,4.2,0.7,6-0.3c0.8-0.5,1.4-1.3,2.1-1.9c-0.1,1-0.8,1.6-1.5,2.2
		c-1.5,1.1-3.6,1.2-5.3,0.6c-1.4,1.1-2.9,2.4-4.7,2.6c-3.2,0-6.4-0.7-9.1-2.3c-1.7-1.1-3.3-2.4-4.6-3.9
		C44.6,44.9,44.3,44.7,44.1,44.7L44.1,44.7z"/>
	<path class="st4" d="M59.1,45.4c1,0.6,1.9,1.4,3.1,1.7c1.7,0.2,3.2-0.5,4.7-1.1c-0.7,1.1-2.2,1.4-3.4,1.6
		C61.8,47.8,60.2,46.8,59.1,45.4L59.1,45.4z"/>
	<path class="st5" d="M42.7,45.8c0.1,0,0.3,0.1,0.4,0.1c0.6,1.5,1.1,3.4,2.8,4.1c2.7,0.9,5.6,1.8,8.5,1.7c0.7,0,1.5,0,2.2,0.1
		c-3.6,0.8-7.2-0.1-10.6-1.1C43.9,50.1,43.3,47.7,42.7,45.8L42.7,45.8z"/>
	<path class="st3" d="M45.1,51.8c0.1,0.2,0.1,0.5,0.2,0.7c0.5,0.5,1.1,1.1,1.9,1.2c2.1,0.3,4.2-0.3,6.3-0.5c1.2-0.1,2.3-0.7,3.5-0.5
		c-2,0.9-4.1,1.4-6.2,1.5c-1.4,0.1-2.9,0.3-4.2-0.4c-0.6-0.4-1-1-1.5-1.5C45,52.3,45.1,52,45.1,51.8L45.1,51.8z"/>
	<path class="st0" d="M52.9,54.8c1.7-0.5,3.5-0.9,5.2-1.3c-1.6,1.1-3.6,1.2-5.3,1.9c-1.6,0.5-2.9,2-4.7,1.6
		c-0.7-0.7-1.4-1.3-1.9-2.2c0.8,0.6,1.4,1.8,2.5,1.7C50.3,56.5,51.4,55.2,52.9,54.8L52.9,54.8z"/>
	<path class="st2" d="M53.4,56.8c2.1-1.3,4.5-2.4,7-2c-1.1,0.2-2.3,0-3.4,0.5c-1.3,0.6-2.7,1.2-3.8,2.3c-0.6,0.6-1.1,1.2-1.6,1.9
		C51.3,58.2,52.5,57.5,53.4,56.8L53.4,56.8z"/>
	<g>
		<path class="st6" d="M85.4,47.7l-0.2-2.4c-1,1.4-1.9,2.1-3.1,2.1c0.4-1.6,1.7-2.6,3.2-2.9c0,0-0.5-2.2,2-4.2l0.4,0.2
			c-2.7,2.1-1.9,4-1.9,4c1.6,0.1,2.7,2,2.8,2.8c-1.1-0.1-2.6-1.4-2.9-2.2l0.2,2.8c1.8,0,2.9,2,3,2.7c-0.9-0.5-2.2-0.8-2.9-2.2
			c0,0-0.6-0.2-0.5-0.3c-1,1.6-2.7,2-3,2C82.5,50.2,83.9,47.5,85.4,47.7z"/>
		<path class="st6" d="M86.5,51.9c0.1,0,0.4,0,0.4,0c1.3,1.5,1,3.1,1,3.1S85.8,53.3,86.5,51.9L86.5,51.9z"/>
		<path class="st6" d="M86.1,49.7"/>
		<path class="st6" d="M85.5,48.3l0.6,2.1c-1.8,0.2-2.2,2.2-2.2,2.2s1.8-0.5,2.3-1.7l0.4,1.2l0.4,0L86,48.5"/>
		<path class="st6" d="M86.6,51c0.3,0.8,2.4,0.9,2.4,0.9s-0.7-1.5-2.6-1.4"/>
	</g>
</g>
<g class="st7">
	<path class="st0" d="M7.6,90.4h-1L20,57.2h1.2l13.1,33.2h-1l-4.4-10.9H12L7.6,90.4z M20.6,58.1L20.6,58.1l-8.3,20.4h16.2L20.6,58.1
		z"/>
	<path class="st0" d="M54.4,82.4c-0.2,1.1-0.7,2-1.3,2.8c-0.6,0.8-1.4,1.5-2.2,2.1c-0.9,0.6-1.8,1-2.8,1.3c-1,0.3-2,0.4-3,0.4
		c-1.7,0-3.1-0.3-4.4-0.9c-1.2-0.6-2.3-1.4-3.1-2.5s-1.4-2.3-1.9-3.6c-0.4-1.4-0.6-2.9-0.6-4.4c0-1.6,0.2-3.1,0.7-4.5
		c0.4-1.4,1.1-2.6,2-3.7s1.9-1.9,3.2-2.5s2.8-0.9,4.4-0.9c1.1,0,2.2,0.2,3.2,0.5c1,0.4,1.9,0.8,2.7,1.5c0.8,0.6,1.5,1.3,2,2.2
		s0.9,1.8,1.2,2.7h0.1v-6.4h0.9v23.1c0,3.3-0.9,5.7-2.6,7.2c-1.7,1.5-4.2,2.3-7.3,2.3c-1.2,0-2.4-0.1-3.4-0.4
		c-1.1-0.3-2-0.7-2.9-1.3c-0.8-0.6-1.5-1.4-2-2.3c-0.5-0.9-0.8-2.1-0.8-3.5h0.9c0,1.2,0.3,2.2,0.7,3c0.4,0.8,1,1.5,1.8,2
		c0.7,0.5,1.6,0.9,2.6,1.2c1,0.2,2,0.4,3,0.4c2.9,0,5.2-0.7,6.7-2.1s2.3-3.6,2.3-6.5L54.4,82.4L54.4,82.4z M53.9,73.6
		c-0.4-1.3-1-2.5-1.7-3.5c-0.8-1-1.7-1.8-2.9-2.4s-2.5-0.9-4-0.9c-1.5,0-2.9,0.3-4.1,0.9s-2.1,1.4-2.9,2.3c-0.8,1-1.4,2.1-1.8,3.4
		c-0.4,1.3-0.6,2.7-0.6,4.1c0,1.5,0.2,2.9,0.6,4.1c0.4,1.3,1,2.4,1.7,3.3c0.8,0.9,1.7,1.7,2.8,2.2c1.1,0.5,2.4,0.8,3.9,0.8
		c1.5,0,2.9-0.3,4.1-0.8c1.2-0.6,2.2-1.3,3-2.3c0.8-0.9,1.4-2.1,1.8-3.3s0.6-2.6,0.6-4.1C54.5,76.3,54.3,74.9,53.9,73.6z"/>
	<path class="st0" d="M61.1,70.7c0.4-1,1-1.8,1.7-2.5c0.8-0.7,1.7-1.3,2.8-1.7c1.1-0.4,2.4-0.6,3.9-0.6c1.1,0,2.1,0.1,3,0.3
		c0.9,0.2,1.8,0.6,2.5,1.1c0.7,0.5,1.3,1.2,1.7,2.1c0.4,0.9,0.7,2,0.7,3.3V88c0,0.5,0.1,0.8,0.3,1c0.2,0.2,0.4,0.4,0.7,0.4
		c0.3,0.1,0.6,0.1,1,0.1c0.4,0,0.7,0,1-0.1v0.9h-1.4c-0.7,0-1.3-0.2-1.8-0.5s-0.8-0.9-0.8-1.8v-3.1h-0.1c-0.2,0.8-0.6,1.5-1.2,2.2
		c-0.5,0.7-1.2,1.3-2,1.9s-1.8,1-2.8,1.3s-2.2,0.5-3.4,0.5c-2.4,0-4.4-0.5-5.8-1.6c-1.5-1.1-2.2-2.7-2.2-4.8c0-1.5,0.2-2.7,0.7-3.6
		c0.5-0.9,1.1-1.6,1.9-2.1c0.8-0.5,1.7-0.9,2.6-1.1c1-0.2,2-0.3,3-0.4c1.6-0.1,3.1-0.2,4.2-0.3c1.2-0.1,2.1-0.2,2.9-0.5
		c0.8-0.2,1.3-0.6,1.7-1.1c0.4-0.5,0.5-1.2,0.5-2.1c0-0.7-0.1-1.5-0.2-2.2c-0.1-0.8-0.4-1.5-0.9-2.1s-1.2-1.2-2.1-1.6
		c-0.9-0.4-2.2-0.6-3.8-0.6c-2.5,0-4.5,0.6-5.9,1.8c-1.4,1.2-2.2,3-2.3,5.2h-0.9C60.5,72.8,60.7,71.7,61.1,70.7z M76.4,76.3
		c-0.3,0.4-0.8,0.8-1.4,1c-0.7,0.2-1.4,0.4-2.2,0.5S71,78.1,70,78.1c-1,0-1.9,0.1-2.9,0.1s-1.8,0.2-2.7,0.3
		c-0.9,0.2-1.7,0.5-2.3,0.9s-1.2,1.1-1.6,1.9c-0.4,0.8-0.6,1.8-0.6,3.1c0,0.7,0.1,1.4,0.3,2c0.2,0.7,0.6,1.3,1.2,1.8
		c0.6,0.5,1.3,0.9,2.2,1.3c0.9,0.3,2,0.5,3.3,0.5c1.5,0,2.9-0.3,4.1-0.8c1.2-0.5,2.2-1.2,3-2.1c0.8-0.9,1.4-1.8,1.9-3
		c0.4-1.1,0.6-2.3,0.6-3.4L76.4,76.3L76.4,76.3z"/>
	<path class="st0" d="M82.8,98.6V66.5h0.9v6.7h0.1c0.3-1.1,0.8-2,1.3-2.9c0.6-0.9,1.3-1.7,2.1-2.3c0.8-0.7,1.7-1.2,2.8-1.5
		c1-0.4,2.2-0.5,3.4-0.5c1.6,0,3,0.3,4.3,0.9s2.3,1.5,3.2,2.6c0.9,1.1,1.6,2.4,2,4c0.5,1.5,0.7,3.2,0.7,5c0,1.7-0.2,3.3-0.7,4.8
		c-0.4,1.5-1.1,2.9-2,4s-1.9,2.1-3.2,2.7c-1.3,0.7-2.7,1-4.4,1c-2.5,0-4.6-0.7-6.3-2c-1.6-1.3-2.7-3.1-3.3-5.2h-0.1v14.9H82.8z
		 M97.6,89c1.2-0.7,2.1-1.6,2.9-2.7c0.7-1.1,1.3-2.3,1.6-3.7s0.5-2.8,0.5-4.2c0-1.5-0.2-3-0.6-4.4c-0.4-1.4-1-2.6-1.7-3.7
		c-0.8-1.1-1.7-1.9-2.9-2.5s-2.5-0.9-4.1-0.9c-1.5,0-2.9,0.3-4.1,0.9c-1.2,0.6-2.2,1.5-3,2.5c-0.8,1.1-1.4,2.3-1.9,3.7
		s-0.7,2.9-0.7,4.4c0,3.8,0.9,6.6,2.6,8.6s4.1,3,7,3C95.1,90,96.5,89.7,97.6,89z"/>
	<path class="st0" d="M107.9,83.1c0.4,1.4,0.9,2.6,1.7,3.6c0.7,1,1.7,1.8,2.9,2.4c1.2,0.6,2.6,0.9,4.3,0.9c2.5,0,4.6-0.7,6.3-2
		c1.7-1.3,2.7-3.3,3.1-5.9h0.9c-0.3,2.8-1.4,5-3.3,6.5c-1.9,1.5-4.2,2.3-6.9,2.3c-1.9,0-3.4-0.3-4.8-0.9c-1.3-0.6-2.4-1.5-3.2-2.6
		c-0.8-1.1-1.5-2.5-1.9-4c-0.4-1.5-0.6-3.2-0.6-5c0-2,0.3-3.7,0.9-5.3s1.4-2.9,2.3-3.9c1-1.1,2.1-1.9,3.3-2.4
		c1.3-0.6,2.6-0.8,3.9-0.8c1.9,0,3.5,0.4,4.8,1.1c1.3,0.7,2.4,1.7,3.3,2.8c0.9,1.2,1.5,2.5,1.9,4c0.4,1.5,0.5,3.1,0.5,4.7h-20
		C107.3,80.2,107.5,81.7,107.9,83.1z M125.8,73.5c-0.4-1.3-1-2.5-1.8-3.5c-0.8-1-1.8-1.8-3-2.3c-1.2-0.6-2.5-0.9-4.1-0.9
		c-1.3,0-2.5,0.2-3.6,0.7c-1.1,0.5-2.1,1.2-3,2.2c-0.9,0.9-1.5,2.1-2.1,3.4c-0.5,1.3-0.8,2.8-0.9,4.5h19.1
		C126.4,76.2,126.2,74.8,125.8,73.5z"/>
</g>
<g class="st7">
	<path class="st6" d="M11.6,108.5l-0.3,0.2l-0.1,0.2l-0.1,0l-0.1,0L11,109l-0.3,0.1l0,0l-0.1,0l0-0.1l0-0.1l0.1-0.2l0-0.2l0-0.1
		l0.1-0.3l0.1-0.3l0-0.3l0-0.1l0.1-0.1c0,0,0-0.1,0-0.1c0-0.1,0-0.2-0.1-0.3l0.1-0.3l-0.1-0.1l0.1-0.3l-0.1,0l0-0.9l-0.1-0.1
		l-0.1-0.2l0,0c-0.1,0-0.1,0-0.1,0c0,0-0.1,0-0.1,0.1l-0.1,0.1l-0.2-0.1c-0.1,0-0.2,0.1-0.2,0.1c0,0,0,0-0.1,0
		c-0.1-0.1-0.2-0.1-0.2-0.1c0,0,0,0,0,0c0,0,0,0,0,0l-0.5,0L8.4,105l-0.5,0L7.7,105l-0.3,0.1l-0.5-0.1l-0.1,0l-0.2-0.1l-0.1,0.1
		l-0.6,0c-0.1,0.1-0.1,0.2-0.1,0.2l0.1,0.4c0,0,0,0.1,0,0.2c0,0.1,0,0.1-0.1,0.2l0,0.3c0,0-0.1,0.1-0.1,0.1c0,0,0,0.1,0,0.1
		c0,0,0.1,0.1,0.2,0.1l0,0.2v0.7v0l0,0.1c0,0,0,0.1-0.1,0.1l0,0.1l0.1,0.3l0,0.1c0,0.2-0.1,0.3-0.2,0.3l-0.3,0.1l-0.2,0.1L5,109.1
		l0,0H4.9c0-0.1-0.1-0.1-0.1-0.2c0-0.1,0-0.1,0-0.2l0.1-0.3l0.1-0.2l0.1,0l0-0.2L5.1,108c0.1-0.1,0.1-0.2,0.1-0.2s0-0.1-0.1-0.2
		l0-0.1l0-0.9L5,106.4c0-0.1,0-0.1,0.1-0.2l0.1-0.1c0,0,0-0.1,0-0.1c-0.1,0-0.2-0.1-0.2-0.2v0l0-0.4L5,105.3v-0.6l0-0.3l0-0.2
		l-0.1,0l0,0l0-0.1l0,0l0-0.2c0.1-0.1,0.2-0.1,0.2-0.2c0-0.1-0.1-0.2-0.2-0.2l-0.1-0.4v-0.1l0-0.4v-0.3l0.1-0.1l0.2-0.1l0.3-0.1
		l0.2-0.1l0.2,0.1c0,0.1,0,0.1,0.1,0.2c-0.1,0.1-0.1,0.1-0.1,0.1c0,0,0,0.1,0,0.3l0,0.1l0.1,0.4l0,0.2h0l-0.1,0.2l0.1,0.1l0,0.1
		l-0.1,0.1L5.6,104l0,0.1l0,0.1c0,0.1,0,0.2,0,0.3l0.1,0l0.9,0.1l0.1,0.1l0.4,0l0.1,0l0-0.1l0.4,0l0,0c0,0,0.1-0.1,0.1-0.1l0.1,0v0
		l0.1,0l0.1,0l0.6,0l0.2,0l0.2,0.1c0.1-0.1,0.1-0.1,0.2-0.1h0l0.3,0l0.5,0l0.3,0l0.1,0l0-0.1l0.1-0.2l0-0.6l0-0.1l-0.1-0.1l-0.1-0.1
		V103l0-0.2l0.1-0.1c0-0.1-0.1-0.3-0.1-0.3c0-0.1,0-0.1,0.1-0.1l0.1,0l0.2-0.1h0.1c0.1,0,0.1-0.1,0.2-0.1l0.2,0.1l0.1,0.2l0,0.1
		l-0.2,0.6l0,0.3l0,0.1h-0.1c0,0-0.1,0-0.1,0.1c0,0,0.1,0.1,0.1,0.1l0.1,0.1l0,0.1l0,0.2l0,0.1l-0.1,0.2l0,1l0,0.8l0.1,0.1
		c0,0.1,0,0.2,0,0.3v0v0v0.1v0.1c-0.1,0.1-0.1,0.1-0.1,0.2c0,0,0,0,0,0l0.1,0.2l0,0.7L11.6,108.5z"/>
	<path class="st6" d="M18.7,106.3l-0.1,0L18.7,106.3l-0.2,0.2c0,0.1,0,0.1,0,0.1c0,0,0,0,0.1,0.1l0,0.1c0,0.4-0.1,0.8-0.4,1.2
		c-0.1,0.1-0.1,0.2-0.2,0.3c-0.1,0.1-0.2,0.2-0.2,0.2l-0.2,0l-1,0.5l-0.5,0l-0.4,0.1l-0.5,0l-0.2,0l-0.5-0.1l-0.2,0l-0.1-0.1l-0.3,0
		l-0.1-0.1c-0.1-0.1-0.2-0.2-0.3-0.2c-0.1-0.1-0.1-0.1-0.2-0.1c0,0,0,0-0.1-0.1l-0.1-0.2l-0.2-0.1l-0.1-0.3l0-0.1l0.1,0
		c0,0,0-0.1,0-0.1c0,0,0,0,0.1-0.1l0-0.1l-0.2-0.1V107c0-0.2,0-0.3,0.1-0.4c0-0.1,0.1-0.3,0.2-0.5c0.1-0.3,0.2-0.5,0.3-0.5l0.2-0.1
		l0.1-0.2c0-0.1,0.1-0.1,0.2-0.1l0.5-0.3l0.3-0.2l0.3-0.1l0.6-0.2l0.5,0l0.4,0c0.2,0,0.3,0.1,0.3,0.2c0.1,0.1,0.1,0.1,0.1,0.1
		c0.1,0,0.1-0.1,0.2-0.2l0.1,0l0.3,0.1l0.1,0.1l0.2,0.1L18,105c0.1,0.1,0.2,0.1,0.3,0.1c0.1,0.1,0.2,0.2,0.2,0.4
		c0,0.1,0.1,0.3,0.1,0.7L18.7,106.3z M17.9,106.4l-0.2-0.6l0-0.3l-0.1-0.1h0c0,0-0.1,0-0.1,0s0,0-0.1-0.1l-0.3-0.3l-0.1-0.1
		l-0.4-0.2c0-0.1-0.1-0.1-0.1-0.2s-0.1,0-0.1,0c0,0-0.1,0-0.2,0.1c-0.1,0-0.2-0.1-0.2-0.1l-0.2,0l-0.3,0l-0.4,0.1l-0.1-0.1l-0.1,0.1
		l-0.4,0.2l-0.7,0.6l-0.1,0.1c0,0.2-0.1,0.4-0.2,0.6l-0.1,0.1v0c0,0.1,0,0.1,0,0.2s-0.1,0-0.1,0.1c0,0.1,0,0.1,0,0.1c0,0,0,0,0,0
		s0,0,0,0l0.2,0.2l0,0.1c-0.1,0.1-0.2,0.2-0.2,0.2l0,0.1c0,0,0.1-0.1,0.1-0.1c0,0,0.1,0,0.1,0l0.1,0.4l0.3,0.4l0,0.3
		c0,0,0.1,0,0.1,0c0,0,0.1,0,0.1-0.1l0.1,0l0.6,0.4l0.6,0.1l0.4,0.1l0.4-0.1l0.3-0.1l0.3-0.3l0.2-0.1l0.1-0.1l0.3-0.6l0.1-0.1
		c0,0,0.1-0.1,0.1-0.1v0l-0.1-0.2L17.9,106.4z"/>
	<path class="st6" d="M23.9,107.4c0,0.1,0,0.3-0.1,0.4c-0.1,0.1-0.1,0.1-0.2,0.1c0,0,0,0-0.1,0l-0.1,0.1l-0.1,0.3l-0.2,0.3l-0.1,0.2
		l-0.1,0l-0.5,0.2l-0.2,0l-0.4,0.1l-0.3-0.1l-0.5,0.1c0,0-0.2,0-0.5-0.1c-0.1,0-0.2-0.1-0.3-0.1l-0.2-0.1l-0.3-0.1
		c-0.1-0.1-0.2-0.2-0.3-0.3s-0.1-0.2-0.1-0.3c0-0.1,0.1-0.1,0.2-0.2c0.1-0.1,0.2-0.2,0.4-0.2l0.1,0.2l0.1,0.5l0.2,0.1l0.3,0.2l0.1,0
		l0.3,0.1h0.2l0.1,0l0.3-0.1l0.4,0l0.2-0.1l0.2-0.1c0.1-0.1,0.3-0.2,0.4-0.5c0.1-0.2,0.2-0.5,0.2-0.7c0-0.1,0-0.1-0.1-0.2l-0.2-0.3
		l-0.1-0.1l-0.1-0.1l-0.1,0.1l-0.1,0l-0.3,0h-0.3h-0.1l-0.1-0.2c-0.1,0.1-0.1,0.1-0.2,0.2c0,0-0.1,0-0.3,0.1l-0.2,0l-0.1-0.1h-0.1
		l-0.1-0.1l-0.2,0l-0.2-0.1l-0.2-0.1c-0.1,0-0.2-0.1-0.2-0.2c-0.1-0.1-0.1-0.2-0.1-0.3c0-0.2,0.1-0.4,0.2-0.5
		c0.1-0.2,0.3-0.4,0.5-0.5c0.2-0.1,0.4-0.2,0.6-0.4c0.2-0.1,0.4-0.2,0.6-0.3s0.4-0.1,0.5-0.1c0,0,0.2,0,0.4,0.1l0.2,0.1
		c0.2,0,0.4-0.1,0.5-0.1c0.1,0,0.2,0,0.2,0c0.1,0,0.1,0.1,0.1,0.1c0,0,0,0.1-0.1,0.2s-0.2,0.2-0.4,0.2l-0.2,0.1l-0.1,0l-0.3,0
		l-0.2-0.1l-0.1-0.2h-0.1l-0.1,0.1h-0.2h-0.2l-0.2,0l-0.2,0l-0.1,0.1l-0.3,0.2c-0.2,0.2-0.4,0.4-0.4,0.6c0,0.1,0,0.2,0.1,0.2
		l0.3,0.2l0.1,0.1v0.1l0.2,0.1l0.2-0.2l0.1,0l0.9-0.1l0.4,0.1l0.2,0l0.2,0.2l0.4,0.2c0.1,0,0.1,0.2,0.2,0.3l0,0.1
		C23.9,107.1,23.9,107.3,23.9,107.4z"/>
	<path class="st6" d="M30.8,106.8l-0.1,0.3l-0.1,0.1l-0.2,0.2l-0.1,0.2l-0.1,0.1l-0.1,0.1l-0.1,0l-0.1,0l-0.1,0.1
		c-0.1,0.2-0.2,0.3-0.2,0.3c0,0-0.1,0.1-0.3,0.1h0l-0.1,0c0,0.1-0.1,0.2-0.1,0.3c-0.1,0.1-0.2,0.2-0.4,0.2l-0.3,0.1l-0.2,0.1l-0.5,0
		l-0.1,0l-0.1,0.1c-0.1,0-0.1-0.1-0.2-0.1c0,0-0.1,0-0.3,0l-0.1,0l0-0.1l-0.1,0l-0.1,0.1l-0.1,0h-0.1h-0.2l-0.1,0l0,0.1l0,0.8
		l-0.1,0.4l0,0.1h0.1l0,1l-0.1,0l0,0.1l0,0.1l0.1,0.3l0,0.1l0.1-0.1l0.1,0l0,0.4l0,0.3l0,0.2c0,0.1-0.1,0.1-0.2,0.1l0,0.1l0.2,0
		l0,0.1l0.1,0.3l0,0.2l-0.1,0.1l-0.1,0.1l-0.1,0.2l-0.1,0l-0.3,0.1l-0.1,0l-0.2,0l0-0.2l0-0.2l0-0.4l0-0.4c0,0,0-0.1,0-0.1
		c0,0,0-0.1,0.1-0.1l-0.1-0.3c0.1-0.1,0.1-0.1,0.1-0.1c0,0,0-0.1,0-0.1c-0.1,0-0.1,0-0.1-0.1c0,0,0-0.1,0-0.1l0-0.2l0-0.1l0-0.6
		l0-0.4l0.1-0.5l0-0.1c0.1-0.1,0.1-0.2,0.1-0.2c0-0.1,0-0.2,0-0.3l-0.1,0l-0.1-0.2v-0.1l0.1-1.8l0.1-0.2l0-0.2l0-0.1l-0.1,0v-0.1
		l0-0.8V106l0-0.2l-0.1-0.4c0-0.1,0-0.2,0-0.2c0,0-0.1-0.1-0.2-0.1c0-0.1,0-0.2,0.1-0.2l0.1-0.1l0.2-0.3l0.2-0.1l0.1-0.1
		c0.1,0,0.1,0.1,0.2,0.1l0,0.1l0,0.2l0,0.1l0.1,0l0.2-0.1c0.2-0.1,0.4-0.2,0.5-0.2s0.2-0.1,0.3-0.1c0.1,0,0.1,0,0.1,0s0.1,0,0.1,0.1
		l0.1-0.1l0.1-0.1l0.1,0l0.2,0l0.6,0l0.5,0c0.1,0,0.1,0.1,0.2,0.2c0,0,0,0,0,0c0,0,0,0,0,0c0,0,0.1,0,0.2,0.1l0.4,0.2
		c0.1,0,0.1,0.1,0.1,0.1l0.1,0.2c0,0,0,0,0.1,0c0,0,0.1,0,0.1,0c0.1,0.1,0.2,0.2,0.3,0.3c0,0.1,0.1,0.2,0.2,0.5s0.1,0.4,0.1,0.5v0
		l0,0.2l0,0.1L30.8,106.8z M30.1,106.3c-0.1-0.1-0.2-0.1-0.2-0.2l-0.1-0.2l-0.3-0.4l0-0.2l-0.1-0.1l-0.3,0l-0.4-0.3l-0.3,0l-0.3-0.1
		l-0.8,0h-0.1l-0.1,0l-0.4,0.1l-0.2,0l-0.2,0.1l-0.1,0c-0.1,0-0.1,0.1-0.1,0.3v0.1c-0.1,0.2-0.2,0.3-0.2,0.4c0,0,0,0,0,0l0,0l0.1,0
		l0,0.3l0,0.6c0,0,0,0.1-0.1,0.2c0.1,0.2,0.1,0.3,0.1,0.4l0,0.5l0,0.2l0.2,0.1l0.3,0.1l0.2,0.2l0.1-0.1l0.1,0.1l0.5,0l0.4,0.2
		l0.4-0.1l0.3,0l0.2-0.1l0.2-0.1l0.3-0.2l0.2-0.1l0.2-0.2l0.2-0.2c0.1-0.1,0.2-0.2,0.2-0.3l0-0.2l0.1-0.3c0,0,0,0,0,0c0,0,0,0,0,0
		l0-0.4L30.1,106.3L30.1,106.3z"/>
	<path class="st6" d="M32.9,104.4c-0.1,0.1-0.1,0.3-0.1,0.4l0,0.5l-0.1,0.2c0,0,0,0,0,0c0,0,0,0,0,0c0,0,0,0.1,0.1,0.1l0,0.2v1
		l0,0.8l0.1,0.3v0.2l0,0.4c0,0.1-0.1,0.2-0.3,0.3l-0.3,0.2c0,0-0.1,0.1-0.2,0.1c0,0-0.1,0-0.1,0c0,0-0.1-0.1-0.1-0.1
		c0-0.1,0-0.2,0.1-0.3l0-0.2l-0.1-0.1l0.1-0.9l0-0.1l0.1,0v-0.2c0-0.1,0-0.2,0-0.2c0-0.1-0.1-0.1-0.1-0.2l0-0.2v0l0-0.1
		c0-0.1,0-0.2,0.1-0.3l-0.1-0.1l0-0.3c0,0,0.1-0.1,0.1-0.1l0-0.1l-0.2,0v-0.2l0-0.1v-0.2c0-0.1,0-0.2,0-0.2c0,0-0.1-0.1-0.1-0.1
		c0-0.1,0.1-0.2,0.3-0.3l0.5-0.3C32.8,104.2,32.9,104.3,32.9,104.4z M33.3,101.6c0,0.1,0,0.1-0.1,0.2l-0.4,0.3l-0.2,0.2l-0.3,0.2
		c-0.2,0.1-0.3,0.2-0.3,0.2c0,0,0,0-0.1,0c0,0,0,0,0-0.1c0-0.1,0-0.1,0.1-0.2l0.5-0.5l0.3-0.4c0,0,0.1,0,0.1,0c0.1,0,0.1,0,0.2,0.1
		C33.2,101.5,33.3,101.5,33.3,101.6z"/>
	<path class="st6" d="M39,108C39,108,39,108,39,108l-0.1,0.3c0,0,0,0,0,0c0,0,0,0,0,0l-0.2,0.3l-0.1,0l-0.2,0.1l-0.1,0l-0.2,0.1h0
		l-0.3,0c-0.1,0-0.1,0-0.2,0.1l-0.3,0.2l-0.4,0l-0.4,0l-0.1-0.1l-0.3,0l-0.3-0.1l-0.5-0.1l-0.2-0.2l-0.2-0.2l0.1-0.2
		c-0.1,0-0.1,0-0.2,0h0l-0.1-0.1l-0.1-0.2l-0.1-0.1l0-0.3l0-0.2l0-0.1l-0.1-0.1l0.1-0.3l0-0.5l0.2-0.3l0.2-0.5l0.3-0.2l0.5-0.5
		l0.2-0.1l0.2-0.1l0.1,0l0.2-0.2l0.7-0.2l0.2,0c0,0,0,0,0,0c0,0,0,0,0,0l0.3,0.1l0.3-0.1l0.5,0.1l0.4-0.1c0.1,0,0.1,0,0.2,0.1
		c0,0.1-0.1,0.2-0.1,0.2s-0.1,0.1-0.2,0.1l0,0.1l-0.2,0.1l-0.2,0.1h0l-0.1,0l-0.2,0l-0.8-0.1c0,0-0.1,0-0.1,0c0,0-0.1,0-0.1,0
		L36,105h-0.1c-0.1,0-0.2,0.1-0.4,0.3l-0.2,0.1l-0.1,0.2l-0.2,0c0,0,0,0.1,0,0.1l-0.2,0.4l0,0.2l0,0.3c0,0.2,0,0.3,0,0.4
		c0,0.1,0.1,0.2,0.1,0.3l0,0.1c0,0.1-0.1,0.1-0.1,0.1c0,0,0,0,0,0.1c0.1,0,0.2,0,0.2,0c0,0,0.1,0.1,0.2,0.2l0.1,0.2c0,0,0,0,0,0
		s0,0,0,0.1h0.1l0.1,0.1l0.3,0.2l0.1,0.1l0.2,0.1l0.2,0.1l0.2,0l0.6,0.1c0,0,0,0,0,0c0.1,0,0.2-0.1,0.4-0.2l0.1,0l0.4-0.3
		c0.1,0,0.2-0.1,0.3-0.1c0.1-0.1,0.2-0.2,0.4-0.3c0-0.1,0.1-0.1,0.1-0.1C38.9,107.9,38.9,107.9,39,108C39,107.9,39,107.9,39,108z"/>
	<path class="st6" d="M44.8,107.9c0,0,0,0.1,0,0.1l-0.1,0.2l-0.2,0.4l-0.2,0l-0.1,0.1c0,0-0.1,0.1-0.2,0.1L43,109l-0.1,0.1l-0.3,0
		l-0.5,0l-0.5,0h-0.2c-0.1-0.1-0.1-0.1-0.1-0.1l-0.5-0.2l-0.2-0.2l-0.3-0.2l-0.3-0.4l-0.1-0.1c0-0.1,0.1-0.2,0.1-0.2c0,0,0,0,0-0.1
		l-0.1-0.2l0-0.3l0-0.2c0-0.1,0-0.2,0.1-0.3c0.1-0.2,0.1-0.3,0.1-0.4l0.2-0.2l0.1-0.2l0.2-0.2l0.3-0.4l0.2-0.1l0.3-0.2l0.2-0.2
		l0.1-0.1l0.2,0l0.5-0.2l0.4,0l0.2-0.1l0.1,0c0.2,0,0.3,0.1,0.5,0.3c0.1,0,0.1,0,0.1-0.1l0.1,0.1l0.2,0.1l0.4,0.4
		c0.1,0.1,0.1,0.1,0.1,0.2c0,0,0.1,0.1,0.1,0.2c0,0.1,0.1,0.1,0.1,0.2c0,0.1,0.1,0.2,0.1,0.3l0,0.1l-0.1,0l-0.2,0l-0.2,0.1l-0.2,0
		l-0.2,0.1l-0.4,0l-0.4,0l-0.4-0.1l-0.6,0l-0.3,0l-0.7,0.1l-0.3,0l-0.4,0.1l-0.1,0l0,0.1c0,0.1,0,0.1,0,0.2c0,0-0.1,0.1-0.1,0.1
		l0,0.1c0.1,0.1,0.2,0.1,0.2,0.2l0.1,0.5l0.1,0.1c0,0-0.1,0.1-0.1,0.1c0,0,0,0,0,0l0.2,0.1l0,0.1c0,0.1,0.1,0.2,0.1,0.2l0.3,0.1
		l0.1,0.2c0,0,0.1,0,0.2,0.1l0.1,0.1l0.2,0l0.5,0.2l0.4-0.1l1-0.2l0.2-0.1l0.3-0.2l0.3-0.4c0-0.1,0.1-0.1,0.2-0.1
		C44.8,107.7,44.8,107.8,44.8,107.9z M43.6,105.4c0-0.1-0.1-0.2-0.2-0.4l-0.4-0.3l-0.1-0.1l-0.2,0l-0.4,0l-0.1,0l-0.2,0.1l-0.3,0.1
		l-0.4,0.1l-0.1,0.1l-0.2,0.3c-0.1,0.1-0.2,0.1-0.2,0.1l0,0.1l0.6,0l0.1,0l0.1,0l0.1,0l0.3,0.1h0l0.4-0.1l0.1,0l0.1,0.1h0.1l0.5-0.1
		l0.2,0C43.6,105.5,43.6,105.5,43.6,105.4z"/>
	<path class="st6" d="M56,105.4c0,0.3,0,0.5-0.1,0.7l-0.1,0.1l-0.3,0.3l-0.3,0.2l-0.1,0l-0.1,0.1l-0.3,0.1c-0.1,0-0.2,0.1-0.2,0.2
		l0.1,0.2l-0.1,0.1l0,0.1c0,0.1,0,0.2,0,0.2c0,0,0,0-0.1,0l-0.2,0c0,0.1,0,0.1,0.1,0.2l-0.1,0.1l-0.1,0.1l-0.1,0.1l-0.3,0.2
		l-0.1,0.1l-0.2,0.1l-0.4,0.2l-0.5,0.2l-0.5,0.2l-0.4,0l-0.3,0.1l-0.1,0l0,0h-0.2l-0.1-0.1c0,0-0.1,0.1-0.1,0.1h-0.1h0
		c-0.2,0-0.3,0-0.3,0s-0.1-0.1-0.2-0.2l-0.1,0l-0.1-0.1h0l0,0.1c-0.1,0-0.1,0-0.2,0c0,0-0.1,0-0.2-0.1c-0.2-0.1-0.3-0.2-0.3-0.3
		c-0.1-0.1-0.2-0.2-0.2-0.3c0-0.1,0.1-0.1,0.1-0.2l0-0.1l-0.1-0.1l-0.2-0.1l0-0.1l0-0.1c0.1,0,0.1,0,0.1,0c0,0,0,0,0.1-0.1l-0.1-0.1
		l-0.1,0c-0.1,0-0.1-0.1-0.1-0.2c0-0.1,0-0.2,0.1-0.3l0.2-0.3l0.1-0.2l0.1-0.1l0.1-0.2l0.1-0.1l0.2-0.2l0.2-0.1l0.2-0.3l0.2-0.2
		l0-0.1l0.3-0.1l0.1-0.1l0.1-0.1c-0.1-0.1-0.2-0.1-0.3-0.2c0,0-0.1-0.1-0.1-0.2l-0.2,0l-0.3-0.4l0-0.1c0-0.1,0-0.1-0.1-0.1l0.1-0.3
		l0,0v-0.1c0-0.1,0-0.1,0-0.2c0,0,0.1-0.1,0.1-0.1c0.1,0,0.1,0,0.1,0c0,0,0-0.1,0.1-0.1c0-0.1,0.1-0.2,0.2-0.2
		c0.1-0.1,0.2-0.1,0.3-0.2l0-0.1l0.2,0l0.1-0.1l0.6-0.2l0.3-0.2l0.4,0l0.5-0.1c0.2,0,0.2,0.1,0.3,0.2l0.2,0l0.1,0.2
		c0.1,0.1,0.1,0.1,0.1,0.1c0,0.1,0,0.1-0.1,0.2l-0.1-0.1l-0.4-0.1l-0.1-0.1l-0.1,0.1l-0.2-0.1l0,0.1l-0.1,0l-0.2-0.1l-0.3,0.1l0,0
		l-0.2,0l-0.1,0l-0.3,0.1l-0.1,0.1l-0.1,0l-0.4,0.4c0,0-0.1,0-0.1,0.1c0,0-0.1,0.1-0.1,0.4l0,0.1l0.1,0.1l0.1,0.1l0,0.1l0.2,0.1
		l0.1,0.1l0.7,0.2l0.1,0.1l0.1,0l0.6,0l0.3-0.1l0.3,0l0.2-0.1l0.2,0.1l-0.2,0.4l-0.2,0.1c-0.1,0-0.2,0.1-0.3,0.1
		c0,0-0.1,0.1-0.1,0.1l-0.2-0.1l-0.1-0.1l-0.1-0.1l-0.2,0.1l-0.2-0.1l-0.1,0.1l-0.3,0l-0.3,0.2l-0.2,0l-0.1,0l0.1,0.1l-0.2,0
		l-0.3,0.2l-0.2,0.1l-0.4,0.5c0,0-0.1,0.1-0.2,0.1c0,0.1-0.1,0.2-0.2,0.4l-0.1,0.3v0.2l0,0.1l0.1,0.1l0,0.3l0.1,0.2l0.1,0.1l0.1,0.1
		l0.1,0.2l0.4,0.4c0,0,0.1,0.1,0.1,0.1s0.1,0.1,0.1,0.1c0,0,0.1,0,0.1,0l0.3,0.1l0.4,0l0.2,0l0,0.1l0.1,0h0.3l0.2-0.1l0.1,0l0.5-0.2
		l0.2,0l0-0.1c0.2-0.1,0.4-0.2,0.5-0.3c0.1-0.1,0.2-0.2,0.3-0.4l0.1-0.2l0-0.2l0-0.2c0-0.1-0.1-0.2-0.2-0.3l-0.4-0.3
		c-0.1-0.1-0.2-0.2-0.2-0.2c0,0-0.1-0.1-0.2-0.1l-0.3-0.1l-0.2,0l-0.3,0.1l-0.2,0c-0.1,0-0.1,0.1-0.1,0.1l-0.1,0.2l-0.1,0.1l0.1,0.2
		v0c0,0,0,0-0.1,0.1c0,0-0.1,0.1-0.2,0.1c0,0-0.1,0-0.1,0L51,107l-0.1-0.1c0,0-0.1-0.1-0.1-0.2c0-0.1,0-0.2,0.1-0.2l0.2-0.2l0.3-0.3
		l0.4-0.1l0.5-0.2l0.2,0l0.2,0l0.4,0.1l0.3,0.2l0,0.1l0.1,0.1l0.1,0l0-0.1l0-0.1l0.1,0.1l0.3,0.2l0.2,0.1c0.1,0,0.4-0.1,0.7-0.3
		c0.1-0.1,0.2-0.1,0.2-0.1l0.1-0.4c0-0.1-0.1-0.2-0.2-0.4c0,0,0.1-0.1,0.1-0.1c0,0,0.1,0,0.1,0l0.2-0.1l0.1,0.1l0,0.1l0.2,0.1
		c0,0,0.1,0.1,0.1,0.2H56z"/>
	<path class="st6" d="M66,103.3l-0.1,0.3c0,0.1-0.1,0.2-0.1,0.2c0,0-0.1,0.1-0.3,0.1c-0.1,0-0.1,0-0.1,0l0.1,0.1
		c0,0.1-0.1,0.2-0.2,0.3c-0.1,0-0.2,0-0.2,0s-0.1,0.1-0.1,0.1l0.1,0l-0.2,0.2l-0.3,0.1l-0.1,0.1l-0.3,0.1c0,0-0.1,0.1-0.3,0.2
		l-0.2,0.1l-0.1,0l-0.2,0.1l-0.4,0.1l-0.3,0.1l-0.3,0l-0.2,0.1l-0.2,0l-0.1,0l-0.1,0c-0.1,0-0.2,0-0.3,0.1l-0.4,0.2l-0.1,0l0,0.1
		l0,0.6l0,0.1l0.1,0.5v0v0.1c-0.1,0-0.2,0.1-0.2,0.1v0l0.1,0.3l0,0.7l0,0.3c0,0.1,0,0.1-0.1,0.2l-0.2,0.1l-0.2,0.2l-0.1,0l-0.2,0.1
		c0,0,0,0-0.1,0c-0.1,0-0.1,0-0.1-0.1c0,0,0-0.1,0-0.1l0.1-0.2l0-0.3l0.1-0.8l-0.1-0.4l0.1-0.5l0-0.2l0.1-0.3V106h-0.1l0-0.1l0-0.1
		l0.1-0.2l0-0.1l0-0.1l-0.1-0.1l0-0.6l0-0.1l0-0.2l0-0.2l-0.1-0.2v0l0-0.4l0-0.1l0.1-0.1l0-0.3h-0.1c0-0.1,0-0.2,0-0.2
		c0-0.1,0-0.2,0-0.3c0,0,0,0,0,0c0,0,0,0,0,0c0,0,0,0,0,0l-0.2-0.1l-0.1-0.1l-0.1,0l0-0.2l0.1,0l0.4-0.2l0.3-0.1l1,0.1l0.2,0
		c0.1,0,0.2,0,0.3,0h0.2l0.3,0l0.2,0l0.1,0l0.2,0l0,0l0.1,0.1h0.5l0.3,0.1l0.1-0.1l0.3,0.1l0.1,0.1c0.1,0.1,0.1,0.1,0.2,0.1l0.4,0
		l0.4,0.2l0.2,0.1c0,0,0,0.1,0,0.1c0,0,0,0.1,0.1,0.2l0,0.1L66,103.3z M65.3,103.4l-0.1-0.2l0-0.1l-0.4-0.4c0-0.1-0.1-0.1-0.1-0.1
		c0,0,0,0-0.1,0l-0.1,0.1c-0.5-0.2-0.9-0.3-1.2-0.3h0h-0.5l-0.4-0.1l-0.3,0.1l-0.7,0c-0.1,0-0.2,0.1-0.2,0.1s-0.1,0.1-0.1,0.2l0,0.4
		l0,0.1l-0.1,0.1c0.1,0,0.1,0.1,0.1,0.1s0,0.1,0,0.1c0,0,0,0.1,0,0.1l-0.1,0.2l0.1,0.2v0.3l0.1,0.6l0,0.1h-0.1c-0.1,0-0.1,0-0.1,0.1
		c0,0.1,0,0.1,0.1,0.1l0.2,0h0.5l0.1,0l0.1,0.1l0.2,0l0.4-0.1l0.7-0.1l0.4-0.1l0.4-0.1c0.2,0,0.2-0.1,0.3-0.1l0.1-0.2l0.2-0.1l0-0.1
		l0.1-0.1l0.1-0.1l0.4-0.3l0.1-0.2L65.3,103.4z"/>
	<path class="st6" d="M70.6,108.6L70.6,108.6l-0.1,0.2l-0.2,0.1l-0.2,0.1l-0.2,0.1c-0.1,0.1-0.2,0.1-0.2,0.1c0,0,0,0-0.1,0
		c0,0,0,0,0-0.1c0,0,0-0.1,0.1-0.2c0,0,0-0.1,0-0.2l-0.1,0.1l-0.5,0.2c-0.1,0-0.2,0.1-0.3,0.1h0h-0.2l-0.2,0.1l-0.2,0l-0.5,0.1
		l-0.2,0l-0.1,0.1l-0.1,0l-0.2,0l-0.3-0.1l-0.2,0c-0.2,0-0.3-0.1-0.4-0.2c-0.1-0.1-0.2-0.2-0.3-0.3l-0.1-0.1l0-0.1l0-0.1l-0.1-0.2
		l0.2-0.4l0.1-0.2c0,0,0.1-0.1,0.2-0.2l0.4-0.3l0.2-0.1l0.3-0.1c0,0,0,0,0,0c0,0,0,0,0,0c0.1-0.2,0.2-0.2,0.4-0.2l0,0h0.1
		c0-0.1,0.1-0.1,0.1-0.1c0,0,0.1,0,0.3-0.1l0.7-0.1l0.2,0l0.2-0.1l0.4,0c0.2,0,0.2-0.1,0.2-0.2c0,0,0,0,0,0l-0.1-0.2l0-0.3
		c0-0.1,0-0.1-0.1-0.2s-0.1-0.1-0.2-0.1l-0.1-0.1c-0.1-0.1-0.1-0.2-0.2-0.2c0,0-0.1-0.1-0.3-0.1l-0.3-0.1l-0.3,0l-0.1,0
		c0,0-0.1,0-0.1-0.1c0,0,0-0.1,0-0.1l-0.1,0.1l-0.2,0.2l-0.5,0.3c-0.1,0.1-0.2,0.1-0.2,0.2l-0.1,0.1c0,0.1-0.1,0.1-0.1,0.1l-0.1,0
		l-0.2-0.1l-0.2,0c-0.1,0-0.1,0-0.2-0.1c-0.1,0-0.1-0.1-0.1-0.1c0,0,0,0,0,0l0.1-0.1l0.2-0.1l0.2,0l0.3-0.1l0.3-0.1l0.1,0l0.2-0.1
		l0.2,0l0.6-0.1l0.3,0h0.2l0.2,0.1l0.6,0.1l0.1,0.1v0.1l-0.1,0c0,0.1,0.1,0.2,0.1,0.2c0,0,0,0,0,0s0,0,0,0l0.1-0.1h0
		c0,0,0.1,0,0.1,0.1l0.1,0.2l0.1,0.1v0.1l0,0.3c0,0.1,0.1,0.2,0.2,0.3l0.1,0.8l-0.1,0.2l0.2,0.2l0,0.1l0,0.5l0,0.4v0.1v0.1l-0.1,0
		c0,0.1,0,0.1,0,0.2c0,0,0,0.1,0,0.1c0,0,0,0.1,0.1,0.2L70.6,108.6z M69.7,107.7c-0.1,0-0.1-0.1-0.1-0.1l0-0.2l0-0.5l0.1-0.1
		l-0.2-0.1l-0.1,0l-0.5,0l-0.2,0l-0.2-0.1l-0.1,0.1l-0.3,0l-0.2,0.1l-0.1-0.1l-0.1,0.1l-0.8,0.4l-0.2,0.1l-0.1,0.2l-0.2,0.1
		c0,0,0,0.1,0,0.1c0,0,0,0,0,0l0,0.1l0,0l0.1,0.5l-0.1,0.3l0.1,0.1l0.1-0.2c0,0,0.1,0.1,0.1,0.1c0,0,0.1,0.1,0.2,0.1
		c0.1,0,0.1,0,0.2,0.1l0.1,0.1l0.4,0l0.1-0.1l0.1,0.1l0.1,0l0.1,0c0.1,0,0.1,0,0.1,0c0.1,0,0.2,0,0.4-0.1c0,0,0,0,0,0s0,0,0.1,0
		c0.3,0,0.5-0.1,0.6-0.2l0.1-0.1l0.3-0.2l0-0.1l0-0.1c0.1,0,0.1,0,0.1-0.1S69.7,107.8,69.7,107.7z"/>
	<path class="st6" d="M73,108l0,0.3l0,0.2c0,0.1,0,0.1-0.1,0.1l0,0.1l-0.1,0l-0.3,0.2l-0.1,0l-0.2,0.1c0,0,0,0,0,0s0,0,0,0
		c-0.1,0-0.1,0-0.1-0.1V109l0-0.2l0.1-0.6l0-0.7c0-0.2,0-0.3,0.1-0.4l-0.1-0.2c-0.1-0.1-0.1-0.2-0.1-0.2c0-0.1,0-0.2,0.1-0.3
		c0-0.1,0.1-0.1,0.1-0.2c0,0-0.1-0.1-0.2-0.1l0-0.1l0,0v-0.1v-0.1l0.1-0.4v-0.9l0.1-0.4c0-0.1,0-0.1-0.1-0.2v-0.2l0-0.9
		c0-0.1,0-0.2,0.1-0.4l0.1-0.1c-0.1-0.1-0.2-0.1-0.2-0.2c0,0,0-0.1,0-0.2l-0.1-0.1v-0.2l0-0.2v0l0.1-0.3l-0.1-0.4l0-0.2L72,99.8
		v-0.1v0l0-0.2l0-0.2l0.5-0.3l0.2-0.2l0.1,0l0.1,0.1l0,0.2l0,0.2l0,0.1v0.1l0,0.4v0l0,0.2c0,0.1,0,0.1,0,0.1l-0.1,0.3l0,0.1
		c0.1,0,0.1,0,0.1,0c0,0,0,0.1,0,0.1v0.1c0,0.1,0,0.1-0.1,0.2v0.1l0,0.1v0l0.1,0.2l0,1v0.7l-0.1,0.3l0.1,0.4l-0.1,0.3
		c0,0,0,0.1,0.1,0.1l0.1,0.1l0,1.7l-0.1,0.1c0,0.1,0,0.1,0,0.2c0,0.1,0,0.2,0,0.3l0,0.1h0.1v0.2L73,108z"/>
	<path class="st6" d="M75.6,108l0,0.3l0,0.2c0,0.1,0,0.1-0.1,0.1l0,0.1l-0.1,0l-0.3,0.2l-0.1,0l-0.2,0.1c0,0,0,0,0,0s0,0,0,0
		c-0.1,0-0.1,0-0.1-0.1V109l0-0.2l0.1-0.6l0-0.7c0-0.2,0-0.3,0.1-0.4l-0.1-0.2c-0.1-0.1-0.1-0.2-0.1-0.2c0-0.1,0-0.2,0.1-0.3
		c0-0.1,0.1-0.1,0.1-0.2c0,0-0.1-0.1-0.2-0.1l0-0.1l0,0v-0.1v-0.1l0.1-0.4v-0.9l0.1-0.4c0-0.1,0-0.1-0.1-0.2v-0.2l0-0.9
		c0-0.1,0-0.2,0.1-0.4l0.1-0.1c-0.1-0.1-0.2-0.1-0.2-0.2c0,0,0-0.1,0-0.2l-0.1-0.1v-0.2l0-0.2v0l0.1-0.3l-0.1-0.4l0-0.2l-0.1-0.6
		v-0.1v0l0-0.2l0-0.2l0.5-0.3l0.2-0.2l0.1,0l0.1,0.1l0,0.2l0,0.2l0,0.1v0.1l0,0.4v0l0,0.2c0,0.1,0,0.1,0,0.1l-0.1,0.3l0,0.1
		c0.1,0,0.1,0,0.1,0c0,0,0,0.1,0,0.1v0.1c0,0.1,0,0.1-0.1,0.2v0.1l0,0.1v0l0.1,0.2l0,1v0.7l-0.1,0.3l0.1,0.4l-0.1,0.3
		c0,0,0,0.1,0.1,0.1l0.1,0.1l0,1.7l-0.1,0.1c0,0.1,0,0.1,0,0.2c0,0.1,0,0.2,0,0.3l0,0.1h0.1v0.2L75.6,108z"/>
	<path class="st6" d="M78.1,104.4c-0.1,0.1-0.1,0.3-0.1,0.4l0,0.5l-0.1,0.2c0,0,0,0,0,0c0,0,0,0,0,0c0,0,0,0.1,0.1,0.1l0,0.2v1
		l0,0.8L78,108v0.2l0,0.4c0,0.1-0.1,0.2-0.3,0.3l-0.3,0.2c0,0-0.1,0.1-0.2,0.1c0,0-0.1,0-0.1,0c0,0-0.1-0.1-0.1-0.1
		c0-0.1,0-0.2,0.1-0.3l0-0.2l-0.1-0.1l0.1-0.9l0-0.1l0.1,0v-0.2c0-0.1,0-0.2,0-0.2c0-0.1-0.1-0.1-0.1-0.2l0-0.2v0l0-0.1
		c0-0.1,0-0.2,0.1-0.3l-0.1-0.1l0-0.3c0,0,0.1-0.1,0.1-0.1l0-0.1l-0.2,0v-0.2l0-0.1v-0.2c0-0.1,0-0.2,0-0.2c0,0-0.1-0.1-0.1-0.1
		c0-0.1,0.1-0.2,0.3-0.3l0.5-0.3C78,104.2,78.1,104.3,78.1,104.4z M78.4,101.6c0,0.1,0,0.1-0.1,0.2L78,102l-0.2,0.2l-0.3,0.2
		c-0.2,0.1-0.3,0.2-0.3,0.2c0,0,0,0-0.1,0c0,0,0,0,0-0.1c0-0.1,0-0.1,0.1-0.2l0.5-0.5l0.3-0.4c0,0,0.1,0,0.1,0c0.1,0,0.1,0,0.2,0.1
		C78.4,101.5,78.4,101.5,78.4,101.6z"/>
	<path class="st6" d="M84.2,108.6L84.2,108.6l-0.1,0.2l-0.2,0.1l-0.2,0.1l-0.2,0.1c-0.1,0.1-0.2,0.1-0.2,0.1c0,0,0,0-0.1,0
		c0,0,0,0,0-0.1c0,0,0-0.1,0.1-0.2c0,0,0-0.1,0-0.2l-0.1,0.1l-0.5,0.2c-0.1,0-0.2,0.1-0.3,0.1h0h-0.2l-0.2,0.1l-0.2,0l-0.5,0.1
		l-0.2,0l-0.1,0.1l-0.1,0l-0.2,0l-0.3-0.1l-0.2,0c-0.2,0-0.3-0.1-0.4-0.2c-0.1-0.1-0.2-0.2-0.3-0.3l-0.1-0.1l0-0.1l0-0.1l-0.1-0.2
		l0.2-0.4l0.1-0.2c0,0,0.1-0.1,0.2-0.2L80,107l0.2-0.1l0.3-0.1c0,0,0,0,0,0c0,0,0,0,0,0c0.1-0.2,0.2-0.2,0.4-0.2l0,0h0.1
		c0-0.1,0.1-0.1,0.1-0.1c0,0,0.1,0,0.3-0.1l0.7-0.1l0.2,0l0.2-0.1l0.4,0c0.2,0,0.2-0.1,0.2-0.2c0,0,0,0,0,0l-0.1-0.2l0-0.3
		c0-0.1,0-0.1-0.1-0.2s-0.1-0.1-0.2-0.1l-0.1-0.1c-0.1-0.1-0.1-0.2-0.2-0.2c0,0-0.1-0.1-0.3-0.1l-0.3-0.1l-0.3,0l-0.1,0
		c0,0-0.1,0-0.1-0.1c0,0,0-0.1,0-0.1l-0.1,0.1l-0.2,0.2l-0.5,0.3c-0.1,0.1-0.2,0.1-0.2,0.2l-0.1,0.1c0,0.1-0.1,0.1-0.1,0.1l-0.1,0
		l-0.2-0.1l-0.2,0c-0.1,0-0.1,0-0.2-0.1c-0.1,0-0.1-0.1-0.1-0.1c0,0,0,0,0,0l0.1-0.1l0.2-0.1l0.2,0l0.3-0.1l0.3-0.1l0.1,0l0.2-0.1
		l0.2,0l0.6-0.1l0.3,0h0.2l0.2,0.1l0.6,0.1l0.1,0.1v0.1l-0.1,0c0,0.1,0.1,0.2,0.1,0.2c0,0,0,0,0,0s0,0,0,0l0.1-0.1h0
		c0,0,0.1,0,0.1,0.1l0.1,0.2l0.1,0.1v0.1l0,0.3c0,0.1,0.1,0.2,0.2,0.3l0.1,0.8l-0.1,0.2l0.2,0.2l0,0.1l0,0.5l0,0.4v0.1v0.1l-0.1,0
		c0,0.1,0,0.1,0,0.2c0,0,0,0.1,0,0.1c0,0,0,0.1,0.1,0.2L84.2,108.6z M83.4,107.7c-0.1,0-0.1-0.1-0.1-0.1l0-0.2l0-0.5l0.1-0.1
		l-0.2-0.1l-0.1,0l-0.5,0l-0.2,0l-0.2-0.1l-0.1,0.1l-0.3,0l-0.2,0.1l-0.1-0.1l-0.1,0.1l-0.8,0.4l-0.2,0.1l-0.1,0.2l-0.2,0.1
		c0,0,0,0.1,0,0.1c0,0,0,0,0,0l0,0.1l0,0l0.1,0.5l-0.1,0.3l0.1,0.1l0.1-0.2c0,0,0.1,0.1,0.1,0.1c0,0,0.1,0.1,0.2,0.1
		c0.1,0,0.1,0,0.2,0.1l0.1,0.1l0.4,0l0.1-0.1l0.1,0.1l0.1,0l0.1,0c0.1,0,0.1,0,0.1,0c0.1,0,0.2,0,0.4-0.1c0,0,0,0,0,0s0,0,0.1,0
		c0.3,0,0.5-0.1,0.6-0.2l0.1-0.1l0.3-0.2l0-0.1l0-0.1c0.1,0,0.1,0,0.1-0.1S83.4,107.8,83.4,107.7z"/>
	<path class="st6" d="M88.9,104.4l-0.1,0.1l0,0.1l-0.4,0.3l-0.2,0.2l-0.1,0l-0.2,0c-0.1,0-0.2,0-0.4-0.1c-0.1,0-0.2,0-0.1,0h0
		l-0.4,0l-0.2,0c0,0-0.1,0-0.1,0.1c0,0,0,0.1,0,0.1c0,0,0,0.1,0.1,0.1l0,0.7c-0.2,0-0.2,0.1-0.2,0.2l0,0.1l0.2,0l0,0.5l0,0.1
		l-0.1,0.2c0,0-0.1,0-0.1,0c-0.1,0-0.1,0-0.1,0.1c0,0,0,0.1,0.1,0.2c0-0.1,0.1-0.1,0.1-0.1c0,0,0,0,0.1,0.1l0,0.7l0,0.1l0.1,0.2
		c0,0,0,0.1,0,0.2c0.1,0.1,0.2,0.1,0.2,0.1c0,0,0.1,0,0.2,0c0.1,0,0.2,0,0.3-0.1c0.1,0,0.2-0.1,0.3-0.1l0.5-0.5c0,0,0,0,0.1,0
		c0,0,0.1,0,0.2,0.1l0,0.1c-0.1,0.3-0.1,0.4-0.2,0.5l-1.2,0.5l-0.2,0.1l-0.2-0.1l-0.1,0l-0.1,0.1l-0.1,0c-0.1,0-0.2-0.1-0.4-0.2
		c-0.1-0.1-0.2-0.2-0.2-0.3l0-0.2l-0.1-0.2l0-0.3v-0.3l0.1-0.3l0-0.1l0-0.2V107l0-0.5l0-0.1l0-0.2c0,0,0,0,0,0l0.1-0.2
		c0,0,0,0,0-0.1c0-0.1-0.1-0.1-0.2-0.1l0-0.1c0-0.3,0.1-0.5,0.1-0.8c-0.2,0-0.3-0.1-0.4-0.1c-0.2,0-0.4,0-0.7,0.1c0,0,0,0,0-0.1
		c0-0.1,0-0.1,0-0.1l0.2-0.2l0-0.1c0,0,0-0.1,0.1-0.1s0,0,0.1,0l0.6,0l0.1,0l0-0.1l0-1.1l-0.1-0.3l0-0.2c0.1-0.1,0.2-0.3,0.3-0.3
		c0.1-0.1,0.2-0.1,0.4-0.1c0.1-0.1,0.1-0.2,0.2-0.2c0.1,0,0.1,0.2,0.1,0.5c0,0.5,0,0.8-0.1,1c0,0.1-0.1,0.2-0.1,0.2v0.2
		c0.1,0,0.1,0,0.1,0s0,0,0.1,0.1l0,0.1l0,0.1l0.1,0l0.5,0.1c0,0,0.1,0,0.2,0c0.1,0,0.1,0,0.2,0l0.2-0.1l0.4,0l0.3-0.1h0.1h0
		L88.9,104.4C88.9,104.4,88.9,104.4,88.9,104.4z"/>
	<path class="st6" d="M90.7,104.4c-0.1,0.1-0.1,0.3-0.1,0.4l0,0.5l-0.1,0.2c0,0,0,0,0,0c0,0,0,0,0,0c0,0,0,0.1,0.1,0.1l0,0.2v1
		l0,0.8l0.1,0.3v0.2l0,0.4c0,0.1-0.1,0.2-0.3,0.3l-0.3,0.2c0,0-0.1,0.1-0.2,0.1c0,0-0.1,0-0.1,0c0,0-0.1-0.1-0.1-0.1
		c0-0.1,0-0.2,0.1-0.3l0-0.2l-0.1-0.1l0.1-0.9l0-0.1l0.1,0v-0.2c0-0.1,0-0.2,0-0.2c0-0.1-0.1-0.1-0.1-0.2l0-0.2v0l0-0.1
		c0-0.1,0-0.2,0.1-0.3l-0.1-0.1l0-0.3c0,0,0.1-0.1,0.1-0.1l0-0.1l-0.2,0v-0.2l0-0.1v-0.2c0-0.1,0-0.2,0-0.2c0,0-0.1-0.1-0.1-0.1
		c0-0.1,0.1-0.2,0.3-0.3l0.5-0.3C90.5,104.2,90.6,104.3,90.7,104.4z M91,101.6c0,0.1,0,0.1-0.1,0.2l-0.4,0.3l-0.2,0.2l-0.3,0.2
		c-0.2,0.1-0.3,0.2-0.3,0.2c0,0,0,0-0.1,0c0,0,0,0,0-0.1c0-0.1,0-0.1,0.1-0.2l0.5-0.5l0.3-0.4c0,0,0.1,0,0.1,0c0.1,0,0.1,0,0.2,0.1
		C91,101.5,91,101.5,91,101.6z"/>
	<path class="st6" d="M96.3,104.2l0,0.1l-0.3,0.6l-0.1,0.3l-0.1,0.5l-0.1,0.2l-0.2,0.4l-0.1,0.3l-0.2,0.4l-0.6,1.4l-0.2,0.2l0.1,0.1
		l-0.1,0.1l-0.3,0.2l-0.2,0.2c0,0-0.1,0-0.1,0c0,0,0,0-0.1,0c0-0.1,0-0.1,0-0.1l-0.1-0.2l-0.1-0.1l-0.2-0.4l-0.3-0.6l0-0.3l0-0.1
		c0-0.1-0.1-0.1-0.2-0.1c0.1-0.1,0.1-0.1,0.1-0.1c0-0.1,0-0.1-0.1-0.2s-0.1-0.1-0.2-0.1l-0.1,0l-0.1-0.3l-0.1-0.2l0-0.3l-0.2-0.2
		l-0.4-1l-0.1-0.1c0.1-0.1,0.1-0.2,0.2-0.2l0.3-0.1l0.1-0.1c0,0,0,0,0,0l0.1,0l0.1,0l0,0.1l0.1,0.3l0.1,0.6l0.2,0.4l0.1,0.2l0.1,0.3
		l0,0.2l0.1,0.1l0.1,0.3l0.3,0.5l0,0.2l0.1,0.1l0.1,0.1l0.3,0.5l0.1,0.1c0,0,0.1,0,0.1,0l0.1-0.3l0.2-0.4l0.2-0.6l0.1-0.2
		c0.1,0,0.2,0,0.2-0.1v0l0-0.3l0-0.1l0.2-0.6l0-0.4l0.2-0.4l0.1-0.3c0-0.1,0.1-0.1,0.2-0.2c0.1-0.1,0.2-0.1,0.3-0.1L96.3,104.2z"/>
	<path class="st6" d="M101.9,107.9c0,0,0,0.1,0,0.1l-0.1,0.2l-0.2,0.4l-0.2,0l-0.1,0.1c0,0-0.1,0.1-0.2,0.1L100,109l-0.1,0.1l-0.3,0
		l-0.5,0l-0.5,0h-0.2c-0.1-0.1-0.1-0.1-0.1-0.1l-0.5-0.2l-0.2-0.2l-0.3-0.2l-0.3-0.4l-0.1-0.1c0-0.1,0.1-0.2,0.1-0.2c0,0,0,0,0-0.1
		l-0.1-0.2l0-0.3l0-0.2c0-0.1,0-0.2,0.1-0.3c0.1-0.2,0.1-0.3,0.1-0.4l0.2-0.2l0.1-0.2l0.2-0.2l0.3-0.4l0.2-0.1l0.3-0.2l0.2-0.2
		l0.1-0.1l0.2,0l0.5-0.2l0.4,0l0.2-0.1l0.1,0c0.2,0,0.3,0.1,0.5,0.3c0.1,0,0.1,0,0.1-0.1l0.1,0.1l0.2,0.1l0.4,0.4
		c0.1,0.1,0.1,0.1,0.1,0.2c0,0,0.1,0.1,0.1,0.2c0,0.1,0.1,0.1,0.1,0.2c0,0.1,0.1,0.2,0.1,0.3l0,0.1l-0.1,0l-0.2,0l-0.2,0.1l-0.2,0
		l-0.2,0.1l-0.4,0l-0.4,0l-0.4-0.1l-0.6,0l-0.3,0l-0.7,0.1l-0.3,0l-0.4,0.1l-0.1,0l0,0.1c0,0.1,0,0.1,0,0.2c0,0-0.1,0.1-0.1,0.1
		l0,0.1c0.1,0.1,0.2,0.1,0.2,0.2l0.1,0.5l0.1,0.1c0,0-0.1,0.1-0.1,0.1c0,0,0,0,0,0l0.2,0.1l0,0.1c0,0.1,0.1,0.2,0.1,0.2l0.3,0.1
		l0.1,0.2c0,0,0.1,0,0.2,0.1l0.1,0.1l0.2,0l0.5,0.2l0.4-0.1l1-0.2l0.2-0.1l0.3-0.2l0.3-0.4c0-0.1,0.1-0.1,0.2-0.1
		C101.8,107.7,101.9,107.8,101.9,107.9z M100.6,105.4c0-0.1-0.1-0.2-0.2-0.4l-0.4-0.3l-0.1-0.1l-0.2,0l-0.4,0l-0.1,0l-0.2,0.1
		l-0.3,0.1l-0.4,0.1l-0.1,0.1l-0.2,0.3c-0.1,0.1-0.2,0.1-0.2,0.1l0,0.1l0.6,0l0.1,0l0.1,0l0.1,0l0.3,0.1h0l0.4-0.1l0.1,0l0.1,0.1
		h0.1l0.5-0.1l0.2,0C100.6,105.5,100.6,105.5,100.6,105.4z"/>
	<path class="st6" d="M112.9,108.2c0,0.1,0,0.1,0,0.2l-0.1,0.1l-0.1,0.2c0,0-0.1,0.1-0.1,0.1l-0.3,0l-0.6,0.2l-0.7,0l-0.7,0.2
		c-0.1,0-0.2,0-0.3,0c-0.3,0-0.5,0-0.7,0l-0.1,0c0-0.2-0.1-0.2-0.2-0.2c-0.1,0-0.1,0-0.2,0.1l0,0.1l-1-0.3l0-0.1l-0.1,0
		c-0.1,0-0.2-0.1-0.3-0.2l-0.3-0.2l-0.2-0.1l-0.1-0.1l-0.4-0.4l0-0.1c0.1,0,0.1,0,0.1-0.1c0,0,0-0.1-0.1-0.1c0,0-0.1,0-0.2,0l-0.1,0
		v-0.1c-0.1,0-0.1-0.1-0.1-0.1s-0.1-0.1-0.1-0.2l0,0l0,0h-0.1l-0.3-0.9l0.1,0l0-0.1l-0.1-0.3l0-0.3c0-0.1,0-0.3,0.1-0.4c0,0,0,0,0,0
		c0,0,0,0,0,0c0,0,0.1,0,0.1-0.1c0-0.1-0.1-0.2-0.1-0.2c0,0,0-0.1,0-0.1l0.3-0.7l0.2-0.1l0.1-0.2l0.1-0.1l0.1-0.1l0.3-0.1l0.2-0.3
		c0.1-0.1,0.2-0.2,0.4-0.2l0.4-0.1l0.3-0.1l0.2-0.1l0.5-0.2c0.2-0.1,0.4-0.1,0.4-0.1h0.3l0.9-0.1l0.3,0l0.1,0l0.2,0.1l0.3,0l0.2,0.1
		l0.1,0c0.1,0,0.2,0,0.2,0.1c0.1,0,0.1,0.1,0.1,0.2c0,0.1,0,0.1-0.1,0.2l-0.2,0.1l-0.1,0.1c0,0-0.1,0-0.1,0c0,0-0.1,0-0.1,0
		l-0.4-0.2l-0.1,0c0,0,0,0,0,0c0,0,0-0.1-0.1-0.1l-0.1,0l-0.3,0l-0.4-0.1l-0.5,0l-0.3,0h-0.1c-0.1,0-0.2,0-0.3,0.1l-0.3,0.1l-0.2,0
		l-0.2,0.1l-0.2,0.1l-0.4,0.2l-0.1,0l-0.2,0.1l0,0.2c-0.2,0.1-0.4,0.2-0.4,0.3l-0.4,0.5l-0.1,0.1l0,0l0,0.1c0,0.1-0.1,0.2-0.1,0.2
		s-0.1,0.1-0.1,0.1l0.1,0.1v0.1l-0.1,0.2l0,0.7l0,0.1l0.1,0.1l0.1,0.3l0,0.1l-0.1,0l0,0.1l0.2,0.2l0.1,0.3l0.1,0.1l0,0.1l0.2,0.3
		l0.1,0.1l0.1,0.1l0.2,0.2l0.1,0.1c0.1,0.1,0.1,0.1,0.1,0.2l0.1,0c0.1,0.1,0.1,0.1,0.2,0.2l0.1,0l0.4,0.2l0.2,0l0.2,0.1
		c0,0,0.2,0.1,0.5,0.1l0.7,0.2c0.1,0,0.2,0,0.3,0h0.1l0.4,0l0.6,0l0.3-0.1l0.5-0.1l0.2-0.1l0.4-0.1l0.3-0.2h0
		C112.8,108.1,112.9,108.1,112.9,108.2z"/>
	<path class="st6" d="M118.4,108.6L118.4,108.6l-0.1,0.2l-0.2,0.1l-0.2,0.1l-0.2,0.1c-0.1,0.1-0.2,0.1-0.2,0.1c0,0,0,0-0.1,0
		c0,0,0,0,0-0.1c0,0,0-0.1,0.1-0.2c0,0,0-0.1,0-0.2l-0.1,0.1l-0.5,0.2c-0.1,0-0.2,0.1-0.3,0.1h0h-0.2l-0.2,0.1l-0.2,0l-0.5,0.1
		l-0.2,0l-0.1,0.1l-0.1,0l-0.2,0l-0.3-0.1l-0.2,0c-0.2,0-0.3-0.1-0.4-0.2c-0.1-0.1-0.2-0.2-0.3-0.3l-0.1-0.1l0-0.1l0-0.1l-0.1-0.2
		l0.2-0.4l0.1-0.2c0,0,0.1-0.1,0.2-0.2l0.4-0.3l0.2-0.1l0.3-0.1c0,0,0,0,0,0c0,0,0,0,0,0c0.1-0.2,0.2-0.2,0.4-0.2l0,0h0.1
		c0-0.1,0.1-0.1,0.1-0.1c0,0,0.1,0,0.3-0.1l0.7-0.1l0.2,0l0.2-0.1l0.4,0c0.2,0,0.2-0.1,0.2-0.2c0,0,0,0,0,0l-0.1-0.2l0-0.3
		c0-0.1,0-0.1-0.1-0.2s-0.1-0.1-0.2-0.1l-0.1-0.1c-0.1-0.1-0.1-0.2-0.2-0.2c0,0-0.1-0.1-0.3-0.1l-0.3-0.1l-0.3,0l-0.1,0
		c0,0-0.1,0-0.1-0.1c0,0,0-0.1,0-0.1l-0.1,0.1l-0.2,0.2l-0.5,0.3c-0.1,0.1-0.2,0.1-0.2,0.2l-0.1,0.1c0,0.1-0.1,0.1-0.1,0.1l-0.1,0
		l-0.2-0.1l-0.2,0c-0.1,0-0.1,0-0.2-0.1c-0.1,0-0.1-0.1-0.1-0.1c0,0,0,0,0,0l0.1-0.1l0.2-0.1l0.2,0l0.3-0.1l0.3-0.1l0.1,0l0.2-0.1
		l0.2,0l0.6-0.1l0.3,0h0.2l0.2,0.1l0.6,0.1l0.1,0.1v0.1l-0.1,0c0,0.1,0.1,0.2,0.1,0.2c0,0,0,0,0,0s0,0,0,0l0.1-0.1h0
		c0,0,0.1,0,0.1,0.1l0.1,0.2l0.1,0.1v0.1l0,0.3c0,0.1,0.1,0.2,0.2,0.3l0.1,0.8l-0.1,0.2l0.2,0.2l0,0.1l0,0.5l0,0.4v0.1v0.1l-0.1,0
		c0,0.1,0,0.1,0,0.2c0,0,0,0.1,0,0.1c0,0,0,0.1,0.1,0.2L118.4,108.6z M117.6,107.7c-0.1,0-0.1-0.1-0.1-0.1l0-0.2l0-0.5l0.1-0.1
		l-0.2-0.1l-0.1,0l-0.5,0l-0.2,0l-0.2-0.1l-0.1,0.1l-0.3,0l-0.2,0.1l-0.1-0.1l-0.1,0.1l-0.8,0.4l-0.2,0.1l-0.1,0.2l-0.2,0.1
		c0,0,0,0.1,0,0.1c0,0,0,0,0,0l0,0.1l0,0l0.1,0.5l-0.1,0.3l0.1,0.1l0.1-0.2c0,0,0.1,0.1,0.1,0.1c0,0,0.1,0.1,0.2,0.1
		c0.1,0,0.1,0,0.2,0.1l0.1,0.1l0.4,0l0.1-0.1l0.1,0.1l0.1,0l0.1,0c0.1,0,0.1,0,0.1,0c0.1,0,0.2,0,0.4-0.1c0,0,0,0,0,0s0,0,0.1,0
		c0.3,0,0.5-0.1,0.6-0.2l0.1-0.1l0.3-0.2l0-0.1l0-0.1c0.1,0,0.1,0,0.1-0.1S117.6,107.8,117.6,107.7z"/>
	<path class="st6" d="M123.5,104.6C123.5,104.6,123.5,104.6,123.5,104.6l-0.3,0.3L123,105l-0.1,0l-0.1-0.1l-0.1-0.1l-0.3,0l-0.3-0.1
		l-0.1,0c0,0.1-0.1,0.1-0.1,0.1s-0.1,0-0.3,0l-0.2,0.1l-0.1,0l-0.1,0.1l-0.4,0.3c-0.1,0.1-0.1,0.3-0.1,0.5l0,0.4l-0.1,0.1
		c0.1,0.1,0.1,0.2,0.1,0.3h0.1l0,0.1l0,0.7l0,0.4l0,0.3c-0.1,0.1-0.2,0.1-0.2,0.2c0,0,0,0,0,0.1l0.1,0l0,0l0,0.2v0
		c0,0.1,0,0.1-0.1,0.2c-0.1,0.1-0.1,0.1-0.2,0.1l-0.2,0l-0.3,0.2l-0.1-0.1l0-0.1l0.1-0.3l0-0.4l0-0.1h0.1v-0.1l0-0.1l-0.1-0.2l0-0.2
		l0-0.2v0v-0.1l0-0.2c0,0,0,0,0-0.1c0,0,0,0,0.1-0.1c0,0,0.1-0.1,0.1-0.1l0.1-0.1l0-0.1c-0.2,0-0.2,0-0.2-0.1l0-0.4l0-0.4
		c0,0,0-0.1,0.1-0.1v-0.2l-0.1-0.1l0-0.1l0-0.3l-0.1-0.2c0-0.1,0.1-0.2,0.2-0.3l0.3-0.2l0.2-0.1c0.1,0,0.2,0.1,0.2,0.1
		c0,0,0.1,0.1,0.1,0.2v0v0.1c0,0.1,0,0.2,0.1,0.2h0l0.3-0.1l0.3-0.1l0.5-0.2l0.1-0.1l0.1,0l0.2-0.1c0.1,0,0.2-0.1,0.3-0.1l0.2,0
		c0.1,0.1,0.1,0.1,0.2,0.1c0,0,0,0,0,0c0,0,0,0,0,0l0.1-0.1c0,0,0,0,0.1,0c0.1,0,0.2,0,0.2,0.1C123.5,104.5,123.5,104.5,123.5,104.6
		z"/>
	<path class="st6" d="M128.7,107.9c0,0,0,0.1,0,0.1l-0.1,0.2l-0.2,0.4l-0.2,0l-0.1,0.1c0,0-0.1,0.1-0.2,0.1l-0.9,0.2l-0.1,0.1
		l-0.3,0l-0.5,0l-0.5,0h-0.2c-0.1-0.1-0.1-0.1-0.1-0.1l-0.5-0.2l-0.2-0.2l-0.3-0.2l-0.3-0.4l-0.1-0.1c0-0.1,0.1-0.2,0.1-0.2
		c0,0,0,0,0-0.1l-0.1-0.2l0-0.3l0-0.2c0-0.1,0-0.2,0.1-0.3c0.1-0.2,0.1-0.3,0.1-0.4l0.2-0.2l0.1-0.2l0.2-0.2l0.3-0.4l0.2-0.1
		l0.3-0.2l0.2-0.2l0.1-0.1l0.2,0l0.5-0.2l0.4,0l0.2-0.1l0.1,0c0.2,0,0.3,0.1,0.5,0.3c0.1,0,0.1,0,0.1-0.1l0.1,0.1l0.2,0.1l0.4,0.4
		c0.1,0.1,0.1,0.1,0.1,0.2c0,0,0.1,0.1,0.1,0.2c0,0.1,0.1,0.1,0.1,0.2c0,0.1,0.1,0.2,0.1,0.3l0,0.1l-0.1,0l-0.2,0L128,106l-0.2,0
		l-0.2,0.1l-0.4,0l-0.4,0l-0.4-0.1l-0.6,0l-0.3,0l-0.7,0.1l-0.3,0l-0.4,0.1l-0.1,0l0,0.1c0,0.1,0,0.1,0,0.2c0,0-0.1,0.1-0.1,0.1
		l0,0.1c0.1,0.1,0.2,0.1,0.2,0.2l0.1,0.5l0.1,0.1c0,0-0.1,0.1-0.1,0.1c0,0,0,0,0,0l0.2,0.1l0,0.1c0,0.1,0.1,0.2,0.1,0.2l0.3,0.1
		l0.1,0.2c0,0,0.1,0,0.2,0.1l0.1,0.1l0.2,0l0.5,0.2l0.4-0.1l1-0.2l0.2-0.1l0.3-0.2l0.3-0.4c0-0.1,0.1-0.1,0.2-0.1
		C128.6,107.7,128.7,107.8,128.7,107.9z M127.4,105.4c0-0.1-0.1-0.2-0.2-0.4l-0.4-0.3l-0.1-0.1l-0.2,0l-0.4,0l-0.1,0l-0.2,0.1
		l-0.3,0.1l-0.4,0.1l-0.1,0.1l-0.2,0.3c-0.1,0.1-0.2,0.1-0.2,0.1l0,0.1l0.6,0l0.1,0l0.1,0l0.1,0l0.3,0.1h0l0.4-0.1l0.1,0l0.1,0.1
		h0.1l0.5-0.1l0.2,0C127.4,105.5,127.4,105.5,127.4,105.4z"/>
</g>
<g class="st7">
	<path class="st0" d="M7.9,90.3h-1l13.4-33.2h1.2l13.1,33.2h-1l-4.4-10.9H12.3L7.9,90.3z M21,58L21,58l-8.3,20.4h16.2L21,58z"/>
	<path class="st0" d="M54.8,82.3c-0.2,1.1-0.7,2-1.3,2.8c-0.6,0.8-1.4,1.5-2.2,2.1c-0.9,0.6-1.8,1-2.8,1.3c-1,0.3-2,0.4-3,0.4
		c-1.7,0-3.1-0.3-4.4-0.9c-1.2-0.6-2.3-1.4-3.1-2.5s-1.4-2.3-1.9-3.6c-0.4-1.4-0.6-2.9-0.6-4.4c0-1.6,0.2-3.1,0.7-4.5
		c0.4-1.4,1.1-2.6,2-3.7c0.9-1.1,1.9-1.9,3.2-2.5c1.3-0.6,2.8-0.9,4.4-0.9c1.1,0,2.2,0.2,3.2,0.5c1,0.4,1.9,0.8,2.7,1.5
		c0.8,0.6,1.5,1.3,2,2.2c0.5,0.8,0.9,1.8,1.2,2.7h0.1v-6.4h0.9v23.1c0,3.3-0.9,5.7-2.6,7.2C51.4,98.3,49,99,45.8,99
		c-1.2,0-2.4-0.1-3.4-0.4c-1.1-0.3-2-0.7-2.9-1.3c-0.8-0.6-1.5-1.4-2-2.3c-0.5-0.9-0.8-2.1-0.8-3.5h0.9c0,1.2,0.3,2.2,0.7,3
		c0.4,0.8,1,1.5,1.8,2c0.7,0.5,1.6,0.9,2.6,1.2c1,0.2,2,0.4,3,0.4c2.9,0,5.2-0.7,6.7-2.1s2.3-3.6,2.3-6.5L54.8,82.3L54.8,82.3z
		 M54.2,73.6c-0.4-1.3-1-2.5-1.7-3.5c-0.8-1-1.7-1.8-2.9-2.4c-1.1-0.6-2.5-0.9-4-0.9c-1.5,0-2.9,0.3-4.1,0.9
		c-1.2,0.6-2.1,1.4-2.9,2.3c-0.8,1-1.4,2.1-1.8,3.4c-0.4,1.3-0.6,2.7-0.6,4.1c0,1.5,0.2,2.9,0.6,4.1c0.4,1.3,1,2.4,1.7,3.3
		c0.8,0.9,1.7,1.7,2.8,2.2c1.1,0.5,2.4,0.8,3.9,0.8c1.5,0,2.9-0.3,4.1-0.8c1.2-0.6,2.2-1.3,3-2.3c0.8-0.9,1.4-2.1,1.8-3.3
		s0.6-2.6,0.6-4.1C54.8,76.2,54.6,74.9,54.2,73.6z"/>
	<path class="st0" d="M61.5,70.7c0.4-1,1-1.8,1.7-2.5c0.8-0.7,1.7-1.3,2.8-1.7c1.1-0.4,2.4-0.6,3.9-0.6c1.1,0,2.1,0.1,3,0.3
		c0.9,0.2,1.8,0.6,2.5,1.1c0.7,0.5,1.3,1.2,1.7,2.1c0.4,0.9,0.7,2,0.7,3.3v15.2c0,0.5,0.1,0.8,0.3,1c0.2,0.2,0.4,0.4,0.7,0.4
		c0.3,0.1,0.6,0.1,1,0.1c0.4,0,0.7,0,1-0.1v0.9h-1.4c-0.7,0-1.3-0.2-1.8-0.5s-0.8-0.9-0.8-1.8v-3.1h-0.1c-0.2,0.8-0.6,1.5-1.2,2.2
		c-0.5,0.7-1.2,1.3-2,1.9s-1.8,1-2.8,1.3s-2.2,0.5-3.4,0.5c-2.4,0-4.4-0.5-5.8-1.6c-1.5-1.1-2.2-2.7-2.2-4.8c0-1.5,0.2-2.7,0.7-3.6
		c0.5-0.9,1.1-1.6,1.9-2.1c0.8-0.5,1.7-0.9,2.6-1.1c1-0.2,2-0.3,3-0.4c1.6-0.1,3.1-0.2,4.2-0.3c1.2-0.1,2.1-0.2,2.9-0.5
		c0.8-0.2,1.3-0.6,1.7-1.1c0.4-0.5,0.5-1.2,0.5-2.1c0-0.7-0.1-1.5-0.2-2.2c-0.1-0.8-0.4-1.5-0.9-2.1c-0.5-0.7-1.2-1.2-2.1-1.6
		c-0.9-0.4-2.2-0.6-3.8-0.6c-2.5,0-4.5,0.6-5.9,1.8c-1.4,1.2-2.2,3-2.3,5.2h-0.9C60.8,72.7,61.1,71.6,61.5,70.7z M76.8,76.3
		c-0.3,0.4-0.8,0.8-1.4,1c-0.7,0.2-1.4,0.4-2.2,0.5S71.3,78,70.4,78c-1,0-1.9,0.1-2.9,0.1s-1.8,0.2-2.7,0.3
		c-0.9,0.2-1.7,0.5-2.3,0.9s-1.2,1.1-1.6,1.9c-0.4,0.8-0.6,1.8-0.6,3.1c0,0.7,0.1,1.4,0.3,2c0.2,0.7,0.6,1.3,1.2,1.8
		c0.6,0.5,1.3,0.9,2.2,1.3c0.9,0.3,2,0.5,3.3,0.5c1.5,0,2.9-0.3,4.1-0.8c1.2-0.5,2.2-1.2,3-2.1c0.8-0.9,1.4-1.8,1.9-3
		c0.4-1.1,0.6-2.3,0.6-3.4L76.8,76.3L76.8,76.3z"/>
	<path class="st0" d="M83.2,98.5V66.4h0.9v6.7h0.1c0.3-1.1,0.8-2,1.3-2.9c0.6-0.9,1.3-1.7,2.1-2.3s1.7-1.2,2.8-1.5
		c1-0.4,2.2-0.5,3.4-0.5c1.6,0,3,0.3,4.3,0.9c1.3,0.6,2.3,1.5,3.2,2.6c0.9,1.1,1.6,2.4,2,4c0.5,1.5,0.7,3.2,0.7,5
		c0,1.7-0.2,3.3-0.7,4.8c-0.4,1.5-1.1,2.9-2,4s-1.9,2.1-3.2,2.7c-1.3,0.7-2.7,1-4.4,1c-2.5,0-4.6-0.7-6.3-2
		c-1.6-1.3-2.7-3.1-3.3-5.2h-0.1v14.9H83.2z M98,88.9c1.2-0.7,2.1-1.6,2.9-2.7c0.7-1.1,1.3-2.3,1.6-3.7s0.5-2.8,0.5-4.2
		c0-1.5-0.2-3-0.6-4.4c-0.4-1.4-1-2.6-1.7-3.7c-0.8-1.1-1.7-1.9-2.9-2.5c-1.2-0.6-2.5-0.9-4.1-0.9c-1.5,0-2.9,0.3-4.1,0.9
		c-1.2,0.6-2.2,1.5-3,2.5c-0.8,1.1-1.4,2.3-1.9,3.7s-0.7,2.9-0.7,4.4c0,3.8,0.9,6.6,2.6,8.6s4.1,3,7,3C95.4,89.9,96.8,89.6,98,88.9z
		"/>
	<path class="st0" d="M108.2,83c0.4,1.4,0.9,2.6,1.7,3.6c0.7,1,1.7,1.8,2.9,2.4c1.2,0.6,2.6,0.9,4.3,0.9c2.5,0,4.6-0.7,6.3-2
		c1.7-1.3,2.7-3.3,3.1-5.9h0.9c-0.3,2.8-1.4,5-3.3,6.5c-1.9,1.5-4.2,2.3-6.9,2.3c-1.9,0-3.4-0.3-4.8-0.9c-1.3-0.6-2.4-1.5-3.2-2.6
		c-0.8-1.1-1.5-2.5-1.9-4c-0.4-1.5-0.6-3.2-0.6-5c0-2,0.3-3.7,0.9-5.3c0.6-1.5,1.4-2.9,2.3-3.9c1-1.1,2.1-1.9,3.3-2.4
		s2.6-0.8,3.9-0.8c1.9,0,3.5,0.4,4.8,1.1c1.3,0.7,2.4,1.7,3.3,2.8c0.9,1.2,1.5,2.5,1.9,4c0.4,1.5,0.5,3.1,0.5,4.7h-20
		C107.7,80.1,107.9,81.6,108.2,83z M126.1,73.4c-0.4-1.3-1-2.5-1.8-3.5c-0.8-1-1.8-1.8-3-2.3c-1.2-0.6-2.5-0.9-4.1-0.9
		c-1.3,0-2.5,0.2-3.6,0.7s-2.1,1.2-3,2.2c-0.9,0.9-1.5,2.1-2.1,3.4c-0.5,1.3-0.8,2.8-0.9,4.5h19.1C126.7,76.1,126.5,74.8,126.1,73.4
		z"/>
</g>
</svg>
